<mxfile host="app.diagrams.net" agent="Mozilla/5.0 (Windows NT 10.0; Win64; x64) AppleWebKit/537.36 (KHTML, like Gecko) Chrome/135.0.0.0 Safari/537.36" version="26.2.14">
  <diagram name="Page-1" id="e7e014a7-5840-1c2e-5031-d8a46d1fe8dd">
    <mxGraphModel dx="1043" dy="550" grid="1" gridSize="10" guides="1" tooltips="1" connect="1" arrows="1" fold="1" page="1" pageScale="1" pageWidth="1169" pageHeight="826" background="none" math="0" shadow="0">
      <root>
        <mxCell id="0" />
        <mxCell id="1" parent="0" />
        <mxCell id="PAyd272_Thw8yAXDjtvD-41" value="Token" style="swimlane;fontStyle=1;align=center;verticalAlign=top;childLayout=stackLayout;horizontal=1;startSize=26;horizontalStack=0;resizeParent=1;resizeParentMax=0;resizeLast=0;collapsible=1;marginBottom=0;whiteSpace=wrap;html=1;" vertex="1" parent="1">
          <mxGeometry x="190" y="290" width="160" height="140" as="geometry" />
        </mxCell>
        <mxCell id="PAyd272_Thw8yAXDjtvD-42" value="+ Kind: TokenKind&lt;div&gt;+ Lexeme: string&lt;/div&gt;&lt;div&gt;+ Position: int&lt;/div&gt;&lt;div&gt;+ Line: int&lt;/div&gt;&lt;div&gt;+ Column: int&lt;/div&gt;" style="text;strokeColor=none;fillColor=none;align=left;verticalAlign=top;spacingLeft=4;spacingRight=4;overflow=hidden;rotatable=0;points=[[0,0.5],[1,0.5]];portConstraint=eastwest;whiteSpace=wrap;html=1;" vertex="1" parent="PAyd272_Thw8yAXDjtvD-41">
          <mxGeometry y="26" width="160" height="84" as="geometry" />
        </mxCell>
        <mxCell id="PAyd272_Thw8yAXDjtvD-43" value="" style="line;strokeWidth=1;fillColor=none;align=left;verticalAlign=middle;spacingTop=-1;spacingLeft=3;spacingRight=3;rotatable=0;labelPosition=right;points=[];portConstraint=eastwest;strokeColor=inherit;" vertex="1" parent="PAyd272_Thw8yAXDjtvD-41">
          <mxGeometry y="110" width="160" height="4" as="geometry" />
        </mxCell>
        <mxCell id="PAyd272_Thw8yAXDjtvD-44" value="+ ToString(): void" style="text;strokeColor=none;fillColor=none;align=left;verticalAlign=top;spacingLeft=4;spacingRight=4;overflow=hidden;rotatable=0;points=[[0,0.5],[1,0.5]];portConstraint=eastwest;whiteSpace=wrap;html=1;" vertex="1" parent="PAyd272_Thw8yAXDjtvD-41">
          <mxGeometry y="114" width="160" height="26" as="geometry" />
        </mxCell>
        <mxCell id="PAyd272_Thw8yAXDjtvD-46" value="TokenKind" style="swimlane;fontStyle=1;align=center;verticalAlign=top;childLayout=stackLayout;horizontal=1;startSize=26;horizontalStack=0;resizeParent=1;resizeParentMax=0;resizeLast=0;collapsible=1;marginBottom=0;whiteSpace=wrap;html=1;" vertex="1" parent="1">
          <mxGeometry x="390" y="321" width="160" height="74" as="geometry" />
        </mxCell>
        <mxCell id="PAyd272_Thw8yAXDjtvD-47" value="enum" style="text;strokeColor=none;fillColor=none;align=left;verticalAlign=top;spacingLeft=4;spacingRight=4;overflow=hidden;rotatable=0;points=[[0,0.5],[1,0.5]];portConstraint=eastwest;whiteSpace=wrap;html=1;" vertex="1" parent="PAyd272_Thw8yAXDjtvD-46">
          <mxGeometry y="26" width="160" height="44" as="geometry" />
        </mxCell>
        <mxCell id="PAyd272_Thw8yAXDjtvD-48" value="" style="line;strokeWidth=1;fillColor=none;align=left;verticalAlign=middle;spacingTop=-1;spacingLeft=3;spacingRight=3;rotatable=0;labelPosition=right;points=[];portConstraint=eastwest;strokeColor=inherit;" vertex="1" parent="PAyd272_Thw8yAXDjtvD-46">
          <mxGeometry y="70" width="160" height="4" as="geometry" />
        </mxCell>
        <mxCell id="PAyd272_Thw8yAXDjtvD-84" style="edgeStyle=orthogonalEdgeStyle;rounded=0;orthogonalLoop=1;jettySize=auto;html=1;exitX=1;exitY=0.25;exitDx=0;exitDy=0;" edge="1" parent="1" source="PAyd272_Thw8yAXDjtvD-50">
          <mxGeometry relative="1" as="geometry">
            <mxPoint x="350.3333333333335" y="468.33333333333337" as="targetPoint" />
          </mxGeometry>
        </mxCell>
        <mxCell id="PAyd272_Thw8yAXDjtvD-50" value="AstNode" style="swimlane;fontStyle=1;align=center;verticalAlign=top;childLayout=stackLayout;horizontal=1;startSize=26;horizontalStack=0;resizeParent=1;resizeParentMax=0;resizeLast=0;collapsible=1;marginBottom=0;whiteSpace=wrap;html=1;" vertex="1" parent="1">
          <mxGeometry x="190" y="450" width="160" height="74" as="geometry" />
        </mxCell>
        <mxCell id="PAyd272_Thw8yAXDjtvD-51" value="+ Line: int&lt;div&gt;+ Column: int&lt;/div&gt;" style="text;strokeColor=none;fillColor=none;align=left;verticalAlign=top;spacingLeft=4;spacingRight=4;overflow=hidden;rotatable=0;points=[[0,0.5],[1,0.5]];portConstraint=eastwest;whiteSpace=wrap;html=1;" vertex="1" parent="PAyd272_Thw8yAXDjtvD-50">
          <mxGeometry y="26" width="160" height="44" as="geometry" />
        </mxCell>
        <mxCell id="PAyd272_Thw8yAXDjtvD-52" value="" style="line;strokeWidth=1;fillColor=none;align=left;verticalAlign=middle;spacingTop=-1;spacingLeft=3;spacingRight=3;rotatable=0;labelPosition=right;points=[];portConstraint=eastwest;strokeColor=inherit;" vertex="1" parent="PAyd272_Thw8yAXDjtvD-50">
          <mxGeometry y="70" width="160" height="4" as="geometry" />
        </mxCell>
        <mxCell id="PAyd272_Thw8yAXDjtvD-86" style="edgeStyle=orthogonalEdgeStyle;rounded=0;orthogonalLoop=1;jettySize=auto;html=1;exitX=1;exitY=0.5;exitDx=0;exitDy=0;" edge="1" parent="1" source="PAyd272_Thw8yAXDjtvD-54" target="PAyd272_Thw8yAXDjtvD-57">
          <mxGeometry relative="1" as="geometry" />
        </mxCell>
        <mxCell id="PAyd272_Thw8yAXDjtvD-87" style="edgeStyle=orthogonalEdgeStyle;rounded=0;orthogonalLoop=1;jettySize=auto;html=1;exitX=0.5;exitY=1;exitDx=0;exitDy=0;entryX=0.5;entryY=0;entryDx=0;entryDy=0;" edge="1" parent="1" source="PAyd272_Thw8yAXDjtvD-54" target="PAyd272_Thw8yAXDjtvD-70">
          <mxGeometry relative="1" as="geometry" />
        </mxCell>
        <mxCell id="PAyd272_Thw8yAXDjtvD-54" value="ExprAst : AstNode" style="swimlane;fontStyle=1;align=center;verticalAlign=top;childLayout=stackLayout;horizontal=1;startSize=26;horizontalStack=0;resizeParent=1;resizeParentMax=0;resizeLast=0;collapsible=1;marginBottom=0;whiteSpace=wrap;html=1;" vertex="1" parent="1">
          <mxGeometry x="390" y="483" width="160" height="30" as="geometry" />
        </mxCell>
        <mxCell id="PAyd272_Thw8yAXDjtvD-56" value="" style="line;strokeWidth=1;fillColor=none;align=left;verticalAlign=middle;spacingTop=-1;spacingLeft=3;spacingRight=3;rotatable=0;labelPosition=right;points=[];portConstraint=eastwest;strokeColor=inherit;" vertex="1" parent="PAyd272_Thw8yAXDjtvD-54">
          <mxGeometry y="26" width="160" height="4" as="geometry" />
        </mxCell>
        <mxCell id="PAyd272_Thw8yAXDjtvD-57" value="StmtAst : AstNode" style="swimlane;fontStyle=1;align=center;verticalAlign=top;childLayout=stackLayout;horizontal=1;startSize=26;horizontalStack=0;resizeParent=1;resizeParentMax=0;resizeLast=0;collapsible=1;marginBottom=0;whiteSpace=wrap;html=1;" vertex="1" parent="1">
          <mxGeometry x="585" y="483" width="160" height="30" as="geometry" />
        </mxCell>
        <mxCell id="PAyd272_Thw8yAXDjtvD-59" value="" style="line;strokeWidth=1;fillColor=none;align=left;verticalAlign=middle;spacingTop=-1;spacingLeft=3;spacingRight=3;rotatable=0;labelPosition=right;points=[];portConstraint=eastwest;strokeColor=inherit;" vertex="1" parent="PAyd272_Thw8yAXDjtvD-57">
          <mxGeometry y="26" width="160" height="4" as="geometry" />
        </mxCell>
        <mxCell id="PAyd272_Thw8yAXDjtvD-89" style="edgeStyle=orthogonalEdgeStyle;rounded=0;orthogonalLoop=1;jettySize=auto;html=1;exitX=0.5;exitY=0;exitDx=0;exitDy=0;entryX=0.5;entryY=1;entryDx=0;entryDy=0;startArrow=classic;startFill=1;endArrow=none;" edge="1" parent="1" source="PAyd272_Thw8yAXDjtvD-66" target="PAyd272_Thw8yAXDjtvD-57">
          <mxGeometry relative="1" as="geometry" />
        </mxCell>
        <mxCell id="PAyd272_Thw8yAXDjtvD-66" value="PrintStmt" style="swimlane;fontStyle=1;align=center;verticalAlign=top;childLayout=stackLayout;horizontal=1;startSize=26;horizontalStack=0;resizeParent=1;resizeParentMax=0;resizeLast=0;collapsible=1;marginBottom=0;whiteSpace=wrap;html=1;" vertex="1" parent="1">
          <mxGeometry x="585" y="540" width="160" height="80" as="geometry" />
        </mxCell>
        <mxCell id="PAyd272_Thw8yAXDjtvD-67" value="+ Arguments: List&amp;lt;ExprAst&amp;gt;" style="text;strokeColor=none;fillColor=none;align=left;verticalAlign=top;spacingLeft=4;spacingRight=4;overflow=hidden;rotatable=0;points=[[0,0.5],[1,0.5]];portConstraint=eastwest;whiteSpace=wrap;html=1;" vertex="1" parent="PAyd272_Thw8yAXDjtvD-66">
          <mxGeometry y="26" width="160" height="24" as="geometry" />
        </mxCell>
        <mxCell id="PAyd272_Thw8yAXDjtvD-68" value="" style="line;strokeWidth=1;fillColor=none;align=left;verticalAlign=middle;spacingTop=-1;spacingLeft=3;spacingRight=3;rotatable=0;labelPosition=right;points=[];portConstraint=eastwest;strokeColor=inherit;" vertex="1" parent="PAyd272_Thw8yAXDjtvD-66">
          <mxGeometry y="50" width="160" height="4" as="geometry" />
        </mxCell>
        <mxCell id="PAyd272_Thw8yAXDjtvD-69" value="+ ToString(): void" style="text;strokeColor=none;fillColor=none;align=left;verticalAlign=top;spacingLeft=4;spacingRight=4;overflow=hidden;rotatable=0;points=[[0,0.5],[1,0.5]];portConstraint=eastwest;whiteSpace=wrap;html=1;" vertex="1" parent="PAyd272_Thw8yAXDjtvD-66">
          <mxGeometry y="54" width="160" height="26" as="geometry" />
        </mxCell>
        <mxCell id="PAyd272_Thw8yAXDjtvD-88" style="edgeStyle=orthogonalEdgeStyle;rounded=0;orthogonalLoop=1;jettySize=auto;html=1;exitX=0.499;exitY=1.082;exitDx=0;exitDy=0;entryX=0.5;entryY=0;entryDx=0;entryDy=0;exitPerimeter=0;" edge="1" parent="1" source="PAyd272_Thw8yAXDjtvD-73" target="PAyd272_Thw8yAXDjtvD-74">
          <mxGeometry relative="1" as="geometry" />
        </mxCell>
        <mxCell id="PAyd272_Thw8yAXDjtvD-70" value="BinaryExprAst" style="swimlane;fontStyle=1;align=center;verticalAlign=top;childLayout=stackLayout;horizontal=1;startSize=26;horizontalStack=0;resizeParent=1;resizeParentMax=0;resizeLast=0;collapsible=1;marginBottom=0;whiteSpace=wrap;html=1;" vertex="1" parent="1">
          <mxGeometry x="390" y="540" width="160" height="110" as="geometry" />
        </mxCell>
        <mxCell id="PAyd272_Thw8yAXDjtvD-71" value="+ Operator: string&lt;div&gt;+ Left: ExprAst&lt;/div&gt;&lt;div&gt;+ Right:&amp;nbsp;&lt;span style=&quot;background-color: transparent; color: light-dark(rgb(0, 0, 0), rgb(255, 255, 255));&quot;&gt;ExprAst&lt;br&gt;&lt;/span&gt;&lt;/div&gt;" style="text;strokeColor=none;fillColor=none;align=left;verticalAlign=top;spacingLeft=4;spacingRight=4;overflow=hidden;rotatable=0;points=[[0,0.5],[1,0.5]];portConstraint=eastwest;whiteSpace=wrap;html=1;" vertex="1" parent="PAyd272_Thw8yAXDjtvD-70">
          <mxGeometry y="26" width="160" height="54" as="geometry" />
        </mxCell>
        <mxCell id="PAyd272_Thw8yAXDjtvD-72" value="" style="line;strokeWidth=1;fillColor=none;align=left;verticalAlign=middle;spacingTop=-1;spacingLeft=3;spacingRight=3;rotatable=0;labelPosition=right;points=[];portConstraint=eastwest;strokeColor=inherit;" vertex="1" parent="PAyd272_Thw8yAXDjtvD-70">
          <mxGeometry y="80" width="160" height="4" as="geometry" />
        </mxCell>
        <mxCell id="PAyd272_Thw8yAXDjtvD-73" value="+ ToString(): void" style="text;strokeColor=none;fillColor=none;align=left;verticalAlign=top;spacingLeft=4;spacingRight=4;overflow=hidden;rotatable=0;points=[[0,0.5],[1,0.5]];portConstraint=eastwest;whiteSpace=wrap;html=1;" vertex="1" parent="PAyd272_Thw8yAXDjtvD-70">
          <mxGeometry y="84" width="160" height="26" as="geometry" />
        </mxCell>
        <mxCell id="PAyd272_Thw8yAXDjtvD-74" value="VarDeclExprAst" style="swimlane;fontStyle=1;align=center;verticalAlign=top;childLayout=stackLayout;horizontal=1;startSize=26;horizontalStack=0;resizeParent=1;resizeParentMax=0;resizeLast=0;collapsible=1;marginBottom=0;whiteSpace=wrap;html=1;" vertex="1" parent="1">
          <mxGeometry x="390" y="680" width="160" height="110" as="geometry" />
        </mxCell>
        <mxCell id="PAyd272_Thw8yAXDjtvD-75" value="+ Name: string&lt;div&gt;+ Type: string&lt;/div&gt;&lt;div&gt;+ Initializer: ExprAst&lt;br&gt;&lt;/div&gt;" style="text;strokeColor=none;fillColor=none;align=left;verticalAlign=top;spacingLeft=4;spacingRight=4;overflow=hidden;rotatable=0;points=[[0,0.5],[1,0.5]];portConstraint=eastwest;whiteSpace=wrap;html=1;" vertex="1" parent="PAyd272_Thw8yAXDjtvD-74">
          <mxGeometry y="26" width="160" height="54" as="geometry" />
        </mxCell>
        <mxCell id="PAyd272_Thw8yAXDjtvD-76" value="" style="line;strokeWidth=1;fillColor=none;align=left;verticalAlign=middle;spacingTop=-1;spacingLeft=3;spacingRight=3;rotatable=0;labelPosition=right;points=[];portConstraint=eastwest;strokeColor=inherit;" vertex="1" parent="PAyd272_Thw8yAXDjtvD-74">
          <mxGeometry y="80" width="160" height="4" as="geometry" />
        </mxCell>
        <mxCell id="PAyd272_Thw8yAXDjtvD-77" value="+ ToString(): void" style="text;strokeColor=none;fillColor=none;align=left;verticalAlign=top;spacingLeft=4;spacingRight=4;overflow=hidden;rotatable=0;points=[[0,0.5],[1,0.5]];portConstraint=eastwest;whiteSpace=wrap;html=1;" vertex="1" parent="PAyd272_Thw8yAXDjtvD-74">
          <mxGeometry y="84" width="160" height="26" as="geometry" />
        </mxCell>
        <mxCell id="PAyd272_Thw8yAXDjtvD-78" value="VarDeclExprStmt" style="swimlane;fontStyle=1;align=center;verticalAlign=top;childLayout=stackLayout;horizontal=1;startSize=26;horizontalStack=0;resizeParent=1;resizeParentMax=0;resizeLast=0;collapsible=1;marginBottom=0;whiteSpace=wrap;html=1;" vertex="1" parent="1">
          <mxGeometry x="585" y="650" width="160" height="110" as="geometry" />
        </mxCell>
        <mxCell id="PAyd272_Thw8yAXDjtvD-79" value="+ Name: string&lt;div&gt;+ Type: string&lt;/div&gt;&lt;div&gt;+ Initializer: StmtAst&lt;br&gt;&lt;/div&gt;" style="text;strokeColor=none;fillColor=none;align=left;verticalAlign=top;spacingLeft=4;spacingRight=4;overflow=hidden;rotatable=0;points=[[0,0.5],[1,0.5]];portConstraint=eastwest;whiteSpace=wrap;html=1;" vertex="1" parent="PAyd272_Thw8yAXDjtvD-78">
          <mxGeometry y="26" width="160" height="54" as="geometry" />
        </mxCell>
        <mxCell id="PAyd272_Thw8yAXDjtvD-80" value="" style="line;strokeWidth=1;fillColor=none;align=left;verticalAlign=middle;spacingTop=-1;spacingLeft=3;spacingRight=3;rotatable=0;labelPosition=right;points=[];portConstraint=eastwest;strokeColor=inherit;" vertex="1" parent="PAyd272_Thw8yAXDjtvD-78">
          <mxGeometry y="80" width="160" height="4" as="geometry" />
        </mxCell>
        <mxCell id="PAyd272_Thw8yAXDjtvD-81" value="+ ToString(): void" style="text;strokeColor=none;fillColor=none;align=left;verticalAlign=top;spacingLeft=4;spacingRight=4;overflow=hidden;rotatable=0;points=[[0,0.5],[1,0.5]];portConstraint=eastwest;whiteSpace=wrap;html=1;" vertex="1" parent="PAyd272_Thw8yAXDjtvD-78">
          <mxGeometry y="84" width="160" height="26" as="geometry" />
        </mxCell>
        <mxCell id="PAyd272_Thw8yAXDjtvD-83" style="edgeStyle=orthogonalEdgeStyle;rounded=0;orthogonalLoop=1;jettySize=auto;html=1;exitX=1;exitY=0.5;exitDx=0;exitDy=0;entryX=0;entryY=0.5;entryDx=0;entryDy=0;" edge="1" parent="1" source="PAyd272_Thw8yAXDjtvD-42" target="PAyd272_Thw8yAXDjtvD-46">
          <mxGeometry relative="1" as="geometry" />
        </mxCell>
        <mxCell id="PAyd272_Thw8yAXDjtvD-85" style="edgeStyle=orthogonalEdgeStyle;rounded=0;orthogonalLoop=1;jettySize=auto;html=1;exitX=1;exitY=0.5;exitDx=0;exitDy=0;entryX=0;entryY=0.5;entryDx=0;entryDy=0;" edge="1" parent="1" source="PAyd272_Thw8yAXDjtvD-51" target="PAyd272_Thw8yAXDjtvD-54">
          <mxGeometry relative="1" as="geometry" />
        </mxCell>
        <mxCell id="PAyd272_Thw8yAXDjtvD-91" style="edgeStyle=orthogonalEdgeStyle;rounded=0;orthogonalLoop=1;jettySize=auto;html=1;exitX=0.5;exitY=0;exitDx=0;exitDy=0;entryX=0.502;entryY=1.07;entryDx=0;entryDy=0;entryPerimeter=0;startArrow=classic;startFill=1;endArrow=none;" edge="1" parent="1" source="PAyd272_Thw8yAXDjtvD-78" target="PAyd272_Thw8yAXDjtvD-69">
          <mxGeometry relative="1" as="geometry" />
        </mxCell>
      </root>
    </mxGraphModel>
  </diagram>
</mxfile>
